# AST/ASF file generated using VICON BodyLanguage
# -----------------------------------------------
:version 1.10
:name VICON
:units
  mass 1.0
  length 0.45
  angle deg
:documentation
   .ast/.asf automatically generated from VICON data using
   VICON BodyBuilder and BodyLanguage model FoxedUp or BRILLIANT.MOD
:root
   order TX TY TZ RX RY RZ
   axis XYZ
   position 0 0 0  
   orientation 0 0 0 
:bonedata
  begin
     id 1 
     name lhipjoint
     direction 0.660183 -0.676772 0.325788 
     length 2.75133 
     axis 0 0 0  XYZ
  end
  begin
     id 2 
     name lfemur
     direction 0.34202 -0.939693 0  
     length 7.70317  
     axis 0 0 20  XYZ
    dof rx ry rz
    limits (-160.0 20.0)
           (-70.0 70.0)
           (-60.0 70.0)
  end
  begin
     id 3 
     name ltibia
     direction 0.342105 -0.939662 0   
     length 7.18701   
     axis 0 0 20   XYZ
    dof rx
    limits (-10.0 170.0)
  end
  begin
     id 4 
     name lfoot
     direction 0.14163 -0.389126 0.910232   
     length 2.41719   
     axis -90 7.62852e-016 20   XYZ
    dof rx rz
    limits (-45.0 90.0)
           (-70.0 20.0)
  end
  begin
     id 5 
     name ltoes
     direction 1.53533e-011 -4.21926e-011 1   
     length 1.18611   
     axis -90 7.62852e-016 20   XYZ
    dof rx
    limits (-90.0 20.0)
  end
  begin
     id 6 
     name rhipjoint
     direction -0.6658 -0.67229 0.323631   
     length 2.76968  
     axis 0 0 0  XYZ 
  end
  begin
     id 7 
     name rfemur
     direction -0.34202 -0.939693 0   
     length 7.92547   
     axis 0 0 -20   XYZ
    dof rx ry rz
    limits (-160.0 20.0)
           (-70.0 70.0)
           (-70.0 60.0)
  end
  begin
     id 8 
     name rtibia
     direction -0.342022 -0.939692 0   
     length 7.22641   
     axis 0 0 -20   XYZ
    dof rx
    limits (-10.0 170.0)
 end
 begin
     id 9 
     name rfoot
     direction -0.105675 -0.29034 0.951071   
     length 2.48149  
     axis -90 -7.62852e-016 -20   XYZ
    dof rx rz
    limits (-45.0 90.0)
           (-20.0 70.0)
  end
  begin
     id 10 
     name rtoes
     direction -1.5349e-011 -4.21859e-011 1   
     length 1.23343   
     axis -90 -7.62852e-016 -20   XYZ
    dof rx
    limits (-90.0 20.0)
  end
  begin
     id 11 
     name lowerback
     direction 0.0104173 0.993624 -0.112266   
     length 2.00527   
     axis 0 0 0   XYZ
    dof rx ry rz
    limits (-20.0 45.0)
           (-30.0 30.0)
           (-30.0 30.0)
  end
  begin
     id 12 
     name upperback
     direction 0.00733149 0.999856 -0.0152913   
     length 2.01385   
     axis 0 0 0   XYZ
    dof rx ry rz
    limits (-20.0 45.0)
           (-30.0 30.0)
           (-30.0 30.0)
  end
  begin
     id 13 
     name thorax
     direction 0.0026304 0.999318 0.036841   
     length 2.03734   
     axis 0 0 0   XYZ
    dof rx ry rz
    limits (-20.0 45.0)
           (-30.0 30.0)
           (-30.0 30.0)
  end
  begin
     id 14 
     name lowerneck
     direction 0.0293154 0.998757 0.0403082   
     length 1.65303   
     axis 0 0 0   XYZ
    dof rx ry rz
    limits (-20.0 45.0)
           (-30.0 30.0)
           (-30.0 30.0)
  end
  begin
     id 15 
     name upperneck
     direction -0.0376619 0.998184 -0.0470083   
     length 1.60926   
     axis 0 0 0   XYZ
    dof rx ry rz
    limits (-20.0 45.0)
           (-30.0 30.0)
           (-30.0 30.0)
  end
  begin
     id 16
     name head
     direction -0.0170133 0.999635 -0.0209778  
     length 1.73625  
     axis 0 0 0   XYZ
    dof rx ry rz
    limits (-20.0 45.0)
           (-30.0 30.0)
           (-30.0 30.0)
  end
  begin
     id 17 
     name lclavicle
     direction 0.919857 0.39181 -0.0186333  
     length 3.75313  
     axis 0 0 0   XYZ
    dof ry rz
    limits (-20.0 10.0)
           (0.0 20.0)
  end
  begin
     id 18 
     name lhumerus
     direction 1 -4.48988e-011 1.44029e-027   
     length 5.49313   
     axis 180 -30 -90   XYZ
    dof rx ry rz
    limits (-60.0 90.0)
           (-90.0 90.0)
           (-90.0 90.0)
  end
  begin
     id 19
     name lradius
     direction 1 -4.48924e-011 7.46281e-027   
     length 3.29037   
     axis 180 -30 -90   XYZ
    dof rx
    limits (-10.0 170.0)
  end
  begin
     id 20
     name lwrist
     direction 1 -4.48955e-011 2.19879e-026   
     length 1.64519   
     axis -1.34358e-014 90 90   XYZ
    dof ry
    limits (-180.0 0.0)
 end
  begin
     id 21 
     name lhand
     direction 1 -4.48978e-011 4.39747e-026   
     length 0.729656   
     axis -2.80598e-014 90 90   XYZ
    dof rx rz
    limits (-90.0 90.0)
           (-45.0 45.0)
  end
  begin
     id 22 
     name lfingers
     direction 1 -4.49071e-011 8.79411e-026   
     length 0.588268   
     axis -5.61193e-014 90 90   XYZ
    dof rx
    limits (0.0 90.0)
  end
  begin
     id 23
     name lthumb
     direction 0.707107 -6.34817e-011 0.707107   
     length 0.844638   
     axis -90 45 -9.86923e-015   XYZ
    dof rx rz
    limits (-45.0 45.0)
           (-45.0 45.0)
  end
  begin
     id 24 
     name rclavicle
     direction -0.919898 0.388279 0.0550233   
     length 3.7171  
     axis 0 0 0   XYZ 
    dof ry rz
    limits (-10.0 20.0)
           (-20.0 0.0)
  end
  begin
     id 25 
     name rhumerus
     direction -1 -4.48968e-011 9.98372e-028  
     length 5.23684   
     axis 180 30 90   XYZ
    dof rx ry rz
    limits (-90.0 60.0)
           (-90.0 90.0)
           (-90.0 90.0)
  end
  begin
     id 26 
     name rradius
     direction -1 -4.48956e-011 1.01023e-026   
     length 3.38251   
     axis 180 30 90   XYZ
    dof rx
    limits (-10.0 170.0)
  end
  begin
     id 27 
     name rwrist
     direction -1 -4.4892e-011 2.19886e-026   
     length 1.69126   
     axis -1.34358e-014 -90 -90   XYZ
    dof ry
    limits (-180.0 0.0)
  end
  begin
     id 28
     name rhand
     direction -1 -4.49024e-011 4.39727e-026   
     length 0.691454   
     axis -2.80598e-014 -90 -90   XYZ
    dof rx rz
    limits (-90.0 90.0)
           (-45.0 45.0)
  end
  begin
     id 29
     name rfingers
     direction -1 -4.49097e-011 8.79388e-026   
     length 0.557468   
     axis -5.61193e-014 -90 -90   XYZ
    dof rx
    limits (0.0 90.0)
  end
  begin
     id 30
     name rthumb
     direction -0.707107 -6.34938e-011 0.707107   
     length 0.800416   
     axis -90 -45 9.86923e-015   XYZ
    dof rx rz
    limits (-45.0 45.0)
           (-45.0 45.0)
  end
:hierarchy
  begin
    root lhipjoint rhipjoint lowerback
    lhipjoint lfemur
    lfemur ltibia
    ltibia lfoot
    lfoot ltoes
    rhipjoint rfemur
    rfemur rtibia
    rtibia rfoot
    rfoot rtoes
    lowerback upperback
    upperback thorax
    thorax lowerneck lclavicle rclavicle
    lowerneck upperneck
    upperneck head
    lclavicle lhumerus
    lhumerus lradius
    lradius lwrist
    lwrist lhand lthumb
    lhand lfingers
    rclavicle rhumerus
    rhumerus rradius
    rradius rwrist
    rwrist rhand rthumb
    rhand rfingers
  end

#!OML:ASF H:\BabyWalks\Project 1\Capture day 1\Session 1\baby.ASF
:FULLY-SPECIFIED
:DEGREES
158
root -37.8045 17.6773 -2.84395 -13.0758 81.3376 -17.2915
lowerback 17.4932 -1.15064 0.737692
upperback 7.51952 -0.879074 2.42061
thorax -1.73863 -0.282519 2.28975
lowerneck -2.96607 2.59985 1.0516
upperneck -7.35227 3.36587 -4.3072
head -1.69833 1.78859 -1.5497
rclavicle -3.42904e-014 1.25234e-014
rhumerus -49.3744 27.2933 -87.95
rradius 42.2152
rwrist -6.75687
rhand -0.238255 -13.9824
rfingers 7.12502
rthumb 25.3621 -42.3157
lclavicle -3.42904e-014 1.25234e-014
lhumerus -48.3897 -1.81859 83.3168
lradius 47.9028
lwrist 9.08852
lhand 5.49703 10.7472
lfingers 7.12502
lthumb 30.8439 38.1783
rfemur -0.652941 11.7118 23.5983
rtibia 18.1918
rfoot -20.9573 -7.60549
rtoes -0.383465
lfemur -21.2747 -1.60741 -13.0094
ltibia 31.3847
lfoot -17.4232 -9.73584
ltoes -2.05093
159
root -37.8057 17.6765 -2.84236 -13.0987 81.3608 -17.3102
lowerback 17.4887 -1.15406 0.742703
upperback 7.52724 -0.882273 2.42327
thorax -1.72799 -0.283836 2.29016
lowerneck -2.93425 2.60405 1.08392
upperneck -7.36358 3.36871 -4.34614
head -1.70641 1.7903 -1.56863
rclavicle -1.2424e-014 -2.18663e-015
rhumerus -49.391 27.2688 -87.9638
rradius 42.2262
rwrist -6.7811
rhand -0.221532 -13.9127
rfingers 7.12502
rthumb 25.3782 -42.2438
lclavicle -1.2424e-014 -2.18663e-015
lhumerus -48.3562 -1.83237 83.2926
lradius 47.8735
lwrist 9.09953
lhand 5.45305 10.7416
lfingers 7.12502
lthumb 30.802 38.1806
rfemur -0.675462 11.6956 23.6032
rtibia 18.2426
rfoot -20.9322 -7.66969
rtoes -0.604992
lfemur -21.2902 -1.61214 -13.0109
ltibia 31.4012
lfoot -17.4175 -9.74976
ltoes -2.05386
160
root -37.8068 17.6758 -2.84077 -13.1523 81.3813 -17.3613
lowerback 17.4815 -1.1575 0.75198
upperback 7.53334 -0.884914 2.42778
thorax -1.71775 -0.284866 2.28996
lowerneck -2.90178 2.60719 1.11122
upperneck -7.37283 3.37043 -4.38054
head -1.71411 1.79145 -1.58523
rclavicle 1.40143e-014 -3.77691e-015
rhumerus -49.4098 27.2439 -87.9744
rradius 42.2345
rwrist -6.80587
rhand -0.210435 -13.8406
rfingers 7.12502
rthumb 25.3888 -42.1702
lclavicle 1.40143e-014 -3.77691e-015
lhumerus -48.3304 -1.85075 83.2749
lradius 47.8518
lwrist 9.11643
lhand 5.41467 10.7393
lfingers 7.12502
lthumb 30.7654 38.1852
rfemur -0.69727 11.69 23.6143
rtibia 18.2912
rfoot -20.9087 -7.73205
rtoes -0.815747
lfemur -21.3098 -1.6161 -13.0066
ltibia 31.4229
lfoot -17.4138 -9.76215
ltoes -2.06664
161
root -37.8077 17.6752 -2.8392 -13.2198 81.3971 -17.425
lowerback 17.4738 -1.15986 0.762841
upperback 7.54124 -0.885776 2.43378
thorax -1.70536 -0.284967 2.29009
lowerneck -2.88133 2.6104 1.13245
upperneck -7.37325 3.3728 -4.4102
head -1.71702 1.79276 -1.59885
rclavicle -3.926e-014 7.15625e-015
rhumerus -49.4257 27.2207 -87.9797
rradius 42.2425
rwrist -6.82783
rhand -0.201227 -13.7877
rfingers 7.12502
rthumb 25.3976 -42.116
lclavicle -3.926e-014 7.15625e-015
lhumerus -48.3051 -1.8729 83.2648
lradius 47.8357
lwrist 9.13815
lhand 5.38131 10.7426
lfingers 7.12502
lthumb 30.7336 38.1945
rfemur -0.7104 11.7026 23.631
rtibia 18.3289
rfoot -20.88 -7.80632
rtoes -1.05715
lfemur -21.3247 -1.62132 -12.9979
ltibia 31.4445
lfoot -17.4113 -9.77169
ltoes -2.06973
162
root -37.8085 17.6745 -2.83767 -13.2978 81.4098 -17.4985
lowerback 17.4639 -1.16134 0.774769
upperback 7.55082 -0.88528 2.44121
thorax -1.69014 -0.284371 2.29082
lowerneck -2.87504 2.61336 1.14927
upperneck -7.36183 3.3753 -4.43702
head -1.71376 1.79392 -1.61027
rclavicle 1.66979e-014 -2.46493e-014
rhumerus -49.4385 27.199 -87.9804
rradius 42.2488
rwrist -6.84141
rhand -0.198319 -13.7508
rfingers 7.12502
rthumb 25.4004 -42.0787
lclavicle 1.66979e-014 -2.46493e-014
lhumerus -48.2801 -1.90048 83.2632
lradius 47.8236
lwrist 9.16238
lhand 5.3546 10.7415
lfingers 7.12502
lthumb 30.7081 38.1982
rfemur -0.720478 11.6366 23.638
rtibia 18.35
rfoot -20.8496 -7.78644
rtoes -1.2361
lfemur -21.3359 -1.62634 -12.9863
ltibia 31.4633
lfoot -17.4076 -9.78097
ltoes -2.06714
163
root -37.8091 17.6741 -2.83618 -13.3847 81.4179 -17.579
lowerback 17.4538 -1.16111 0.78786
upperback 7.56229 -0.882253 2.44992
thorax -1.67284 -0.282475 2.29176
lowerneck -2.88028 2.61567 1.16305
upperneck -7.34149 3.37726 -4.46267
head -1.70571 1.79463 -1.62037
rclavicle -6.95746e-016 2.8625e-014
rhumerus -49.4489 27.1778 -87.9762
rradius 42.2577
rwrist -6.85454
rhand -0.192786 -13.754
rfingers 7.12502
rthumb 25.4057 -42.0812
lclavicle -6.95746e-016 2.8625e-014
lhumerus -48.2557 -1.93414 83.2706
lradius 47.8162
lwrist 9.18772
lhand 5.33444 10.7445
lfingers 7.12502
lthumb 30.6889 38.2048
rfemur -0.718929 11.6204 23.6544
rtibia 18.3601
rfoot -20.8159 -7.8144
rtoes -1.46043
lfemur -21.3408 -1.63343 -12.9712
ltibia 31.4801
lfoot -17.4055 -9.78524
ltoes -2.05845
164
root -37.8098 17.6741 -2.83474 -13.4724 81.4239 -17.6601
lowerback 17.4454 -1.16163 0.802988
upperback 7.57316 -0.879906 2.4573
thorax -1.65712 -0.280859 2.2903
lowerneck -2.89377 2.61949 1.17279
upperneck -7.31394 3.38172 -4.48327
head -1.69395 1.79641 -1.62785
rclavicle -1.21259e-014 2.50469e-014
rhumerus -49.4588 27.159 -87.973
rradius 42.2673
rwrist -6.85505
rhand -0.187022 -13.7921
rfingers 7.12502
rthumb 25.4112 -42.1185
lclavicle -1.21259e-014 2.50469e-014
lhumerus -48.233 -1.97034 83.2819
lradius 47.8126
lwrist 9.21122
lhand 5.32249 10.7484
lfingers 7.12502
lthumb 30.6775 38.2108
rfemur -0.717347 11.6183 23.6728
rtibia 18.3715
rfoot -20.7864 -7.84972
rtoes -1.69146
lfemur -21.3448 -1.64258 -12.9544
ltibia 31.4995
lfoot -17.4074 -9.78743
ltoes -2.04097
165
root -37.8105 17.6737 -2.83332 -13.5708 81.4257 -17.752
lowerback 17.4423 -1.16342 0.822216
upperback 7.58093 -0.878607 2.46304
thorax -1.6475 -0.279689 2.2851
lowerneck -2.90632 2.62418 1.18988
upperneck -7.28512 3.38695 -4.50975
head -1.68175 1.79846 -1.63848
rclavicle -4.37326e-015 5.96354e-016
rhumerus -49.4706 27.1413 -87.972
rradius 42.2779
rwrist -6.84531
rhand -0.169389 -13.8638
rfingers 7.12502
rthumb 25.4281 -42.1877
lclavicle -4.37326e-015 5.96354e-016
lhumerus -48.2175 -2.00762 83.2953
lradius 47.8135
lwrist 9.23087
lhand 5.32084 10.7452
lfingers 7.12502
lthumb 30.676 38.208
rfemur -0.715016 11.5824 23.6888
rtibia 18.3772
rfoot -20.7529 -7.83544
rtoes -1.8795
lfemur -21.3489 -1.64945 -12.9345
ltibia 31.5191
lfoot -17.4091 -9.78848
ltoes -2.03307
166
root -37.8114 17.6725 -2.83196 -13.6606 81.4247 -17.8368
lowerback 17.4403 -1.16588 0.842425
upperback 7.58664 -0.878235 2.46602
thorax -1.64071 -0.278972 2.27665
lowerneck -2.91874 2.63035 1.20847
upperneck -7.25485 3.39428 -4.53345
head -1.66906 1.80143 -1.64846
rclavicle 5.08889e-014 9.93923e-016
rhumerus -49.4823 27.1233 -87.9731
rradius 42.2869
rwrist -6.82746
rhand -0.147726 -13.9554
rfingers 7.12502
rthumb 25.4489 -42.2764
lclavicle 5.08889e-014 9.93923e-016
lhumerus -48.2063 -2.04579 83.309
lradius 47.818
lwrist 9.2446
lhand 5.32854 10.7394
lfingers 7.12502
lthumb 30.6833 38.2007
rfemur -0.718126 11.485 23.6946
rtibia 18.3796
rfoot -20.7216 -7.74247
rtoes -1.97534
lfemur -21.354 -1.6596 -12.9129
ltibia 31.5393
lfoot -17.4113 -9.78596
ltoes -2.01699
167
root -37.8123 17.6719 -2.83057 -13.7431 81.42 -17.9158
lowerback 17.4448 -1.1706 0.865599
upperback 7.58644 -0.880577 2.46472
thorax -1.64361 -0.279584 2.26265
lowerneck -2.92068 2.63867 1.23373
upperneck -7.23018 3.40408 -4.5597
head -1.65977 1.80565 -1.66075
rclavicle -1.86858e-014 1.43125e-014
rhumerus -49.4998 27.1069 -87.9818
rradius 42.2914
rwrist -6.7967
rhand -0.125434 -14.0493
rfingers 7.12502
rthumb 25.4702 -42.3672
lclavicle -1.86858e-014 1.43125e-014
lhumerus -48.2067 -2.08148 83.3187
lradius 47.8278
lwrist 9.25424
lhand 5.34545 10.7311
lfingers 7.12502
lthumb 30.6994 38.1894
rfemur -0.720977 11.4487 23.7086
rtibia 18.3856
rfoot -20.6965 -7.70791
rtoes -2.10735
lfemur -21.362 -1.66904 -12.891
ltibia 31.5615
lfoot -17.415 -9.77943
ltoes -2.01309
168
root -37.8132 17.6717 -2.82916 -13.8106 81.4076 -17.9804
lowerback 17.4497 -1.17349 0.887129
upperback 7.58306 -0.881068 2.46129
thorax -1.6502 -0.279381 2.24703
lowerneck -2.91351 2.65012 1.26118
upperneck -7.20874 3.418 -4.58369
head -1.65296 1.81194 -1.67295
rclavicle 1.5704e-014 -1.63003e-014
rhumerus -49.5209 27.0886 -87.992
rradius 42.29
rwrist -6.75894
rhand -0.104552 -14.1341
rfingers 7.12502
rthumb 25.4902 -42.4492
lclavicle 1.5704e-014 -1.63003e-014
lhumerus -48.2169 -2.11673 83.3277
lradius 47.8432
lwrist 9.26303
lhand 5.37036 10.7182
lfingers 7.12502
lthumb 30.7232 38.172
rfemur -0.72485 11.4715 23.7296
rtibia 18.3986
rfoot -20.6715 -7.72325
rtoes -2.28718
lfemur -21.3687 -1.67488 -12.8685
ltibia 31.5857
lfoot -17.421 -9.76984
ltoes -2.01487
169
root -37.8141 17.6711 -2.82782 -13.8529 81.3889 -18.0199
lowerback 17.4584 -1.17695 0.908515
upperback 7.57628 -0.882596 2.45339
thorax -1.66242 -0.279719 2.22707
lowerneck -2.90138 2.66361 1.28885
upperneck -7.18972 3.43479 -4.60311
head -1.64775 1.81963 -1.68389
rclavicle -3.07122e-014 -6.55989e-015
rhumerus -49.545 27.0725 -88.0075
rradius 42.281
rwrist -6.70955
rhand -0.0880783 -14.2051
rfingers 7.12502
rthumb 25.506 -42.5179
lclavicle -3.07122e-014 -6.55989e-015
lhumerus -48.2349 -2.14792 83.3322
lradius 47.8611
lwrist 9.27125
lhand 5.39797 10.7004
lfingers 7.12502
lthumb 30.7495 38.1493
rfemur -0.728543 11.4641 23.7427
rtibia 18.4033
rfoot -20.6474 -7.69433
rtoes -2.41886
lfemur -21.3717 -1.68117 -12.8472
ltibia 31.6054
lfoot -17.4247 -9.75452
ltoes -2.0165
